<?xml version="1.0" standalone="no"?>
<!DOCTYPE svg PUBLIC "-//W3C//DTD SVG 20010904//EN"
 "http://www.w3.org/TR/2001/REC-SVG-20010904/DTD/svg10.dtd">
<svg version="1.0" xmlns="http://www.w3.org/2000/svg"
 width="512.000000pt" height="512.000000pt" viewBox="0 0 512.000000 512.000000"
 preserveAspectRatio="xMidYMid meet">
<metadata>
Created by potrace 1.14, written by Peter Selinger 2001-2017
</metadata>
<g transform="translate(0.000000,512.000000) scale(0.100000,-0.100000)"
fill="#000000" stroke="none">
<path d="M2742 4739 c-190 -42 -299 -134 -355 -299 l-22 -65 -2 -1785 c-3
-1949 -5 -1851 53 -1976 60 -128 186 -213 360 -241 61 -10 305 -11 359 -1 235
43 365 161 406 368 11 52 13 422 13 1830 0 1670 -1 1769 -18 1837 -42 170
-150 278 -326 325 -108 29 -352 33 -468 7z m302 -334 c13 -9 33 -33 43 -53 17
-35 18 -109 18 -1797 l0 -1760 -22 -35 c-28 -45 -53 -60 -111 -66 -55 -6 -104
15 -136 59 l-21 28 0 1778 0 1778 28 36 c15 20 42 41 60 46 41 13 110 6 141
-14z"/>
<path d="M370 4565 l0 -185 23 0 c12 0 149 0 305 0 267 1 283 0 278 -17 -2
-10 -7 -38 -11 -63 -3 -25 -13 -79 -20 -120 -8 -41 -17 -93 -21 -115 -3 -22
-23 -146 -45 -275 -22 -129 -42 -246 -44 -260 -14 -83 -47 -279 -51 -300 -2
-14 -7 -41 -10 -60 -5 -34 -9 -59 -19 -110 -3 -14 -8 -41 -10 -60 -3 -19 -8
-44 -10 -56 -3 -12 -7 -39 -10 -60 -4 -21 -20 -118 -36 -214 -16 -96 -32 -187
-34 -202 -9 -54 -15 -88 -20 -115 -2 -16 -18 -109 -35 -208 -17 -99 -33 -193
-36 -210 -8 -52 -16 -99 -21 -120 -2 -11 -6 -36 -9 -55 -2 -19 -9 -57 -14 -85
-5 -27 -11 -63 -14 -80 -2 -16 -13 -84 -25 -150 -11 -66 -23 -138 -26 -160 -4
-22 -8 -48 -11 -58 -3 -10 -7 -32 -10 -50 -5 -44 -10 -71 -40 -237 -22 -118
-28 -185 -31 -358 l-5 -212 536 0 535 0 -2 188 -2 187 -317 1 c-175 0 -320 2
-322 5 -3 3 3 52 14 109 10 58 21 123 24 145 9 58 15 92 27 160 6 33 13 74 15
90 3 17 13 77 24 135 10 58 21 121 24 140 3 19 8 46 10 60 8 41 67 393 72 425
2 17 7 41 9 55 10 49 14 74 31 185 3 17 7 37 9 45 3 8 9 47 15 85 5 39 12 79
14 90 4 20 53 303 62 360 3 17 7 42 9 58 3 15 7 39 9 55 9 52 58 337 62 357 2
11 6 36 9 55 3 19 7 45 10 58 8 41 46 266 50 294 2 15 9 53 14 85 6 32 13 74
16 93 3 19 12 71 20 115 8 44 17 100 20 125 3 25 10 61 15 80 17 67 23 155 24
347 l1 193 -512 0 -513 0 0 -185z"/>
<path d="M3750 2560 l0 -2190 505 0 505 0 0 189 0 189 -262 1 c-145 0 -272 0
-283 1 -20 0 -20 7 -20 822 l1 823 282 3 282 2 0 188 0 187 -272 -1 c-150 0
-277 3 -283 7 -7 5 -9 278 -9 791 1 430 2 789 3 796 1 8 12 13 29 12 15 -1
141 -2 280 -1 l252 1 0 185 0 185 -505 0 -505 0 0 -2190z"/>
</g>
</svg>
